<?xml version="1.0" standalone="no"?><!DOCTYPE svg PUBLIC "-//W3C//DTD SVG 1.1//EN" "http://www.w3.org/Graphics/SVG/1.1/DTD/svg11.dtd"><svg t="1707181761449" class="icon" viewBox="0 0 1024 1024" version="1.1" xmlns="http://www.w3.org/2000/svg" p-id="1754" xmlns:xlink="http://www.w3.org/1999/xlink" width="200" height="200"><path d="M459.6 905.85c3.03 3.88 7.68 6.15 12.61 6.15h87.59c6.67 0.01 10.42-7.68 6.31-12.93L264.18 512.63l302.93-387.7c4.11-5.25 0.36-12.94-6.31-12.93h-89.56c-4.93 0-9.58 2.27-12.61 6.15L166.78 491.67c-9.04 11.58-9.04 27.82 0 39.4L459.6 905.85z m295 0c3.03 3.88 7.68 6.15 12.61 6.15h87.59c6.67 0.01 10.42-7.68 6.31-12.93L559.18 512.63l302.93-387.7c4.11-5.25 0.36-12.94-6.31-12.93h-89.56c-4.93 0-9.58 2.27-12.61 6.15L461.78 491.67c-9.04 11.58-9.04 27.82 0 39.4L754.6 905.85z" p-id="1755"></path></svg>