<?xml version="1.0" standalone="no"?><!DOCTYPE svg PUBLIC "-//W3C//DTD SVG 1.1//EN" "http://www.w3.org/Graphics/SVG/1.1/DTD/svg11.dtd"><svg t="1707181777421" class="icon" viewBox="0 0 1024 1024" version="1.1" xmlns="http://www.w3.org/2000/svg" p-id="1899" xmlns:xlink="http://www.w3.org/1999/xlink" width="200" height="200"><path d="M269.223 905.85a15.997 15.997 0 0 1-12.61 6.15h-87.59c-6.67 0.01-10.42-7.68-6.31-12.93l301.93-386.44-302.93-387.7c-4.11-5.25-0.36-12.94 6.31-12.93h89.56c4.93 0 9.58 2.27 12.61 6.15l291.85 373.52c9.04 11.58 9.04 27.82 0 39.4l-292.82 374.78z m295 0a15.997 15.997 0 0 1-12.61 6.15h-87.59c-6.67 0.01-10.42-7.68-6.31-12.93l301.93-386.44-302.93-387.7c-4.11-5.25-0.36-12.94 6.31-12.93h89.56c4.93 0 9.58 2.27 12.61 6.15l291.85 373.52c9.04 11.58 9.04 27.82 0 39.4l-292.82 374.78z" p-id="1900"></path></svg>